<?xml version="1.0" standalone="no"?>
<!DOCTYPE svg PUBLIC "-//W3C//DTD SVG 20010904//EN"
 "http://www.w3.org/TR/2001/REC-SVG-20010904/DTD/svg10.dtd">
<svg version="1.0" xmlns="http://www.w3.org/2000/svg"
 width="1536.000000pt" height="1024.000000pt" viewBox="0 0 1536.000000 1024.000000"
 preserveAspectRatio="xMidYMid meet">

<g transform="translate(0.000000,1024.000000) scale(0.100000,-0.100000)"
fill="#000000" stroke="none">
<path d="M0 5120 l0 -5120 7680 0 7680 0 0 5120 0 5120 -7680 0 -7680 0 0
-5120z m3895 1221 c254 -66 436 -242 495 -477 11 -44 20 -91 20 -106 l0 -28
-148 0 -148 0 -13 53 c-26 102 -75 173 -170 250 -39 30 -118 62 -194 79 -76
16 -260 5 -330 -21 -64 -22 -164 -90 -213 -143 -178 -192 -225 -572 -108 -881
75 -197 241 -340 444 -383 152 -32 403 -3 531 62 l49 25 -2 202 -3 202 -222 3
-221 2 -6 108 c-3 59 -5 115 -5 124 0 16 28 18 380 20 l379 3 0 -395 0 -395
-75 -49 c-145 -94 -315 -143 -540 -155 -323 -17 -511 26 -725 166 -294 192
-447 635 -364 1048 24 116 62 217 114 301 116 187 257 299 465 369 111 37 170
44 360 41 133 -3 188 -8 250 -25z m935 -161 l0 -140 -145 0 -145 0 0 140 0
140 145 0 145 0 0 -140z m6930 116 c0 -8 -3 -16 -7 -18 -5 -1 -59 -67 -121
-145 l-114 -143 -71 0 -70 0 19 23 c11 12 32 40 47 62 16 22 48 67 72 100 25
33 52 74 62 92 14 28 22 33 62 36 105 8 121 7 121 -7z m-190 -7 c0 -3 -14 -26
-31 -50 -16 -24 -42 -61 -56 -82 -14 -20 -28 -35 -31 -32 -3 2 1 11 7 19 9 11
9 16 0 22 -7 4 -9 3 -5 -4 3 -6 2 -14 -4 -17 -6 -4 -8 -15 -5 -24 3 -10 -3
-27 -12 -39 -10 -11 -31 -37 -47 -56 -27 -33 -34 -36 -81 -36 l-52 0 27 58
c15 31 42 98 60 149 l34 92 81 3 c116 4 115 4 115 -3z m-5784 -494 c381 -67
603 -450 499 -861 -47 -186 -161 -329 -328 -413 -111 -56 -189 -74 -317 -74
-215 -1 -382 68 -510 210 -107 120 -161 280 -161 480 1 212 53 346 186 481 68
67 98 89 167 122 141 66 295 84 464 55z m2522 -10 c120 -28 204 -83 270 -174
62 -85 64 -104 71 -561 l7 -415 27 -71 c15 -39 27 -74 27 -78 0 -4 -64 -5
-142 -4 l-142 3 -20 65 c-11 36 -21 67 -23 69 -2 2 -20 -9 -41 -25 -122 -97
-214 -133 -357 -141 -115 -6 -239 14 -315 50 -58 28 -164 132 -184 181 -76
182 -17 361 153 463 94 57 202 85 474 123 251 35 260 42 238 157 -12 64 -48
110 -111 141 -49 24 -66 27 -150 27 -150 -1 -233 -49 -275 -159 l-18 -46 -128
0 c-146 0 -139 -5 -115 86 42 159 152 259 326 299 41 9 80 18 85 20 33 11 288
3 343 -10z m1287 0 c112 -29 208 -104 257 -200 50 -96 51 -110 55 -622 l4
-483 -135 0 -136 0 0 398 c0 423 -6 496 -45 578 -61 125 -226 166 -368 91 -63
-33 -103 -77 -133 -147 -17 -42 -19 -78 -22 -482 l-3 -438 -140 0 -139 0 0
645 0 645 135 0 135 0 0 -65 0 -66 38 39 c51 52 116 89 187 106 81 19 236 20
310 1z m1228 -4 c128 -33 207 -87 257 -174 56 -99 60 -139 60 -651 l0 -465
-135 -3 -134 -3 -3 455 c-3 452 -3 455 -26 502 -30 60 -90 114 -144 128 -59
16 -184 9 -231 -14 -47 -23 -103 -78 -126 -125 -36 -71 -41 -132 -41 -544 l0
-402 -145 0 -145 0 0 643 0 642 135 0 135 0 0 -70 c0 -38 3 -70 8 -70 4 0 25
19 47 41 106 109 312 155 488 110z m-5993 -656 l0 -645 -145 0 -145 0 0 645 0
645 145 0 145 0 0 -645z m1730 634 c0 -10 70 -208 140 -399 86 -233 131 -359
198 -560 3 -10 8 -4 12 15 7 28 121 357 168 485 11 30 53 147 94 260 l74 205
143 3 c113 2 142 0 138 -10 -2 -7 -19 -51 -37 -98 -18 -47 -61 -159 -95 -250
-35 -91 -86 -226 -114 -300 -27 -74 -78 -207 -111 -295 -34 -88 -76 -199 -93
-247 l-32 -88 -147 0 c-143 0 -147 0 -154 23 -3 12 -56 146 -117 297 -60 151
-122 307 -137 345 -15 39 -68 171 -118 295 -50 124 -100 249 -111 278 l-21 52
160 0 c108 0 160 -4 160 -11z m4990 -624 c0 -349 1 -638 3 -641 1 -3 -60 -6
-136 -7 l-137 -2 0 643 0 642 135 0 135 0 0 -635z"/>
<path d="M11366 6065 c4 -10 1 -20 -7 -25 -7 -5 -10 -13 -5 -17 4 -4 18 5 31
22 13 16 21 32 18 35 -3 3 -8 -1 -10 -8 -4 -10 -8 -10 -19 -1 -12 10 -13 9 -8
-6z"/>
<path d="M5515 5566 c-56 -19 -79 -34 -113 -72 -87 -96 -122 -201 -122 -364 1
-123 10 -171 52 -258 61 -129 171 -196 318 -195 136 2 237 68 299 196 38 76
51 143 51 256 -1 233 -103 402 -273 447 -74 20 -132 17 -212 -10z"/>
<path d="M8270 5099 c-19 -4 -84 -15 -143 -24 -256 -38 -355 -92 -373 -203
-20 -129 98 -222 266 -209 164 13 287 93 320 208 6 19 10 80 10 136 0 115 2
112 -80 92z"/>
</g>
</svg>
